# xmcd
#
# Track frame offsets:
#	150
#	11697
#	31610
#	49767
#	64807
#	88065
#	115260
#	127762
#	141152
#	157142
#	173087
#	190280
#
# Disc length: 2825
#
# Revision: 1
# Processed by: cddbd v1.5.1PL0 Copyright (c) Steve Scherf et al.
# Submitted via: dBpowerAMP V4.0
# Normalized: r0:TRMNUM
#
DISCID=9c0b070c
DTITLE=Eric Clapton - The Blues Concert
DYEAR=1995
DGENRE=Blues
TTITLE0=Blues Leave Me Alone
TTITLE1=Standin' Round Crying
TTITLE2=44
TTITLE3=It Hurts Me Too
TTITLE4=Five Long Years
TTITLE5=Crossroads
TTITLE6=Malted milk
TTITLE7=Motherless Child
TTITLE8=How Long Blues
TTITLE9=Reconsider Baby
TTITLE10=Sinner's Prayer
TTITLE11=Everyday I Have The Blues
EXTD=Album Kts 457-58\nTwo discs\nEnrique Acevedo
EXTT0=
EXTT1=
EXTT2=
EXTT3=
EXTT4=
EXTT5=
EXTT6=
EXTT7=
EXTT8=
EXTT9=
EXTT10=
EXTT11=
PLAYORDER=
